<?xml version="1.0" encoding="UTF-8" standalone="no"?>
<!-- Created with Inkscape (http://www.inkscape.org/) -->

<svg
   width="81.262619mm"
   height="58.244446mm"
   viewBox="0 0 81.262619 58.244446"
   version="1.1"
   id="svg1"
   xmlns="http://www.w3.org/2000/svg"
   xmlns:svg="http://www.w3.org/2000/svg">
  <defs
     id="defs1" />
  <g
     id="layer1"
     transform="translate(-50.681977,-85.813543)">
    <path
       id="rect1"
       style="fill:#000000;stroke-width:2.005"
       d="m 130.3846,86.848686 c -1.74388,-1.535038 -4.33653,-1.324395 -5.91857,0.376962 -25.185889,27.085252 -33.634751,42.074772 -39.930957,43.287762 -6.296211,1.213 -25.898119,-20.04452 -25.898119,-20.04452 -1.743883,-1.53505 -5.25287,-0.77829 -6.787915,0.96559 l -0.117458,0.13344 c -1.535045,1.74389 -1.366922,4.38353 0.376961,5.91857 l 28.895834,25.43543 c 0.330927,0.29129 0.69468,0.52063 1.076486,0.69009 1.66315,0.83627 3.731528,0.48866 5.021732,-0.97708 L 130.89499,92.884715 c 1.53505,-1.743883 1.36693,-4.383526 -0.37696,-5.918571 z" />
  </g>
</svg>
