<?xml version="1.0" encoding="UTF-8" standalone="no"?>
<!-- Created with Inkscape (http://www.inkscape.org/) -->

<svg
   width="35.244877mm"
   height="35.244884mm"
   viewBox="0 0 35.244877 35.244884"
   version="1.1"
   id="svg1"
   xmlns="http://www.w3.org/2000/svg"
   xmlns:svg="http://www.w3.org/2000/svg">
  <defs
     id="defs1" />
  <g
     id="layer1"
     transform="translate(-236.37497,-125.82113)">
    <path
       id="rect11"
       style="fill:#ffffff;stroke-width:0.304675;stroke-opacity:0.96027"
       d="m 240.65119,125.82114 c -0.30752,1e-5 -0.61495,0.11783 -0.85059,0.35347 l -3.07217,3.07217 c -0.47128,0.47128 -0.47128,1.2299 0,1.70118 l 12.49588,12.49588 -12.49587,12.49537 c -0.47129,0.47128 -0.47129,1.2299 0,1.70118 l 3.07216,3.07217 c 0.47129,0.47129 1.2299,0.47129 1.70119,0 l 12.49536,-12.49588 12.49588,12.49587 c 0.47128,0.47129 1.22989,0.47129 1.70118,0 l 3.07217,-3.07216 c 0.47128,-0.47129 0.47128,-1.2299 0,-1.70119 l -12.49536,-12.49536 12.49536,-12.49587 c 0.47129,-0.47129 0.47129,-1.2299 0,-1.70119 l -3.07217,-3.07217 c -0.47128,-0.47128 -1.22989,-0.47128 -1.70118,0 l -12.49588,12.49536 -12.49537,-12.49536 c -0.23564,-0.23564 -0.54306,-0.35346 -0.85059,-0.35347 z" />
  </g>
</svg>
