<?xml version="1.0" encoding="UTF-8" standalone="no"?>
<!-- Created with Inkscape (http://www.inkscape.org/) -->

<svg
   width="82.767609mm"
   height="82.767563mm"
   viewBox="0 0 82.767609 82.767563"
   version="1.1"
   id="svg1"
   xmlns="http://www.w3.org/2000/svg"
   xmlns:svg="http://www.w3.org/2000/svg">
  <defs
     id="defs1" />
  <g
     id="layer2"
     transform="translate(-39.947432,-102.58803)">
    <path
       d="m 81.329919,102.58805 c -22.826063,0 -41.382486,18.5585 -41.382487,41.38456 0,6.82891 1.818492,13.17915 4.75785,18.86138 0.0057,0.0876 0.01609,0.17493 0.03101,0.26148 0.277561,0.53096 0.643428,1.00942 0.943612,1.52756 0.662125,1.13865 1.29814,2.2789 2.062407,3.34553 0.03028,0.0424 0.05172,0.0905 0.08217,0.13281 0.01475,0.007 0.02956,0.0132 0.04444,0.0196 0.06336,0.0875 0.141123,0.16309 0.205155,0.25012 0.0022,0.0254 0.0048,0.0507 0.0078,0.076 0.165164,0.22394 0.387802,0.38968 0.557072,0.60978 1.510835,1.96414 3.161651,3.78744 4.99401,5.45083 0.403635,0.36578 0.834652,0.68257 1.251603,1.03147 1.7634,1.4798 3.618793,2.8151 5.613611,3.98838 0.487275,0.28559 0.981968,0.53918 1.48053,0.80461 1.998897,1.06855 4.072827,1.96415 6.249748,2.69699 0.575845,0.19371 1.147587,0.37047 1.73271,0.53898 2.122266,0.61133 4.296279,1.03393 6.542753,1.29915 0.397479,0.0475 0.767964,0.1965 1.167888,0.23254 0.09012,-0.0245 0.178798,-0.054 0.265617,-0.0884 1.138063,0.0943 2.230484,0.34416 3.392557,0.34416 22.826065,0 41.385075,-18.55694 41.385075,-41.383 0,-22.82606 -18.55901,-41.38456 -41.385075,-41.38456 z m 0,4.9997 c 5.430502,0 10.534085,1.26232 15.158248,3.38687 l -12.781132,15.72256 -2.279447,-1.44539 c 2.086649,-5.89124 0.418934,-12.57857 -4.705139,-16.45895 -1.304812,-0.98777 -3.191068,-0.47645 -3.818372,1.03508 l -3.821989,9.20512 c -1.65134,0.24094 -12.265813,2.06226 -18.335831,10.75232 -3.984914,5.70494 -5.306955,10.89662 -5.67614,15.41973 -0.01421,-0.41882 -0.12299,-0.81014 -0.12299,-1.23248 10e-7,-20.12386 16.25893,-36.38486 36.382792,-36.38486 z m 21.404381,7.07037 c 9.04734,6.61301 14.98048,17.22627 14.98048,29.31449 0,3.51202 -0.65362,6.83617 -1.5782,10.04693 -0.35574,-4.36116 -2.64619,-8.35705 -6.36912,-10.72648 l -4.83795,-3.13676 h -0.008 c -0.005,-0.005 -0.009,-0.009 -0.014,-0.0139 l -9.636623,-6.11125 z m -26.699148,0.66404 c 1.826487,2.89602 2.011556,6.63395 0.24598,9.787 -0.649556,1.15856 -0.279865,2.6228 0.841809,3.33416 l 5.613611,3.55844 c 0.04049,0.0671 0.08412,0.13231 0.130741,0.19534 l 7.699272,4.7718 10.052615,6.37274 -4.861201,15.76751 -13.445691,-2.24999 c -1.935137,-0.32402 -3.714667,0.66033 -4.667932,1.77767 -0.953264,1.11733 -1.434924,2.29184 -1.486214,3.66024 l -0.650089,17.30437 c -1.470378,-0.24269 -2.949987,-0.4505 -4.367176,-0.86713 -0.378629,-0.11072 -0.753694,-0.22676 -1.127063,-0.34933 -2.085233,-0.68769 -4.100524,-1.55154 -6.019787,-2.59778 -0.248576,-0.1356 -0.501206,-0.26343 -0.746208,-0.40462 -1.992455,-1.14752 -3.874605,-2.48545 -5.622913,-3.99563 -0.142848,-0.12358 -0.296297,-0.2339 -0.437182,-0.35966 -1.516033,-1.3516 -2.852469,-2.91052 -4.136699,-4.51756 l 18.806604,-41.05486 c 0.0073,-0.0383 0.01364,-0.0767 0.01912,-0.11523 z m 19.037081,5.32061 -4.107243,10.65826 0.988842,1.57305 z m -28.060773,4.33578 -18.425266,34.76792 c 0.227656,-1.13865 4.476391,0.31153 4.55555,-0.90309 0.498977,-7.65639 2.693619,-9.87672 9.951456,-20.26729 2.811574,-4.02515 4.956211,-9.66971 3.91826,-13.59754 z m 11.865379,8.57402 c -2.193778,0 -4.025079,1.83184 -4.025077,4.0256 3e-6,2.19376 1.831317,4.02559 4.025077,4.02559 2.19376,0 4.025591,-1.83183 4.025594,-4.02559 2e-6,-2.19376 -1.831816,-4.0256 -4.025594,-4.0256 z m 0.05622,4.28786 c 0.508444,0 -2.432132,-0.89956 -2.432132,-0.39113 10e-7,0.50847 3.109255,0.42882 2.600797,0.42882 -0.508458,0 1.218026,0.1523 1.218027,-0.35617 0,-0.50843 -1.895136,0.31848 -1.386692,0.31848 z m 26.051231,8.30982 2.08204,1.34979 c 0.006,0.004 0.0117,0.008 0.0176,0.0119 2.58459,1.64494 -3.01954,-5.27163 -3.54413,-2.25323 l -0.51546,2.96593 -1.79813,2.67132 c 0.0331,3.39346 2.46872,5.11573 -0.86682,4.49056 l 0.3578,4.60934 z m -23.493142,15.63987 15.549955,2.6045 7.035227,1.31826 c 2.82948,0.53032 5.49668,-0.30577 7.66775,-1.81849 -6.49438,9.90634 -17.660407,16.46101 -30.414163,16.46101 -0.289136,0 -0.555854,-0.077 -0.843359,-0.0837 l 0.66766,-17.78754 c -0.004,0.10618 0.137971,-0.41892 0.295072,-0.60306 0.06009,-0.0704 0.04817,-0.0795 0.04186,-0.091 z"
       style="stroke-linecap:round;stroke-linejoin:round"
       id="path73" />
  </g>
</svg>
