<?xml version="1.0" encoding="UTF-8" standalone="no"?>
<!-- Created with Inkscape (http://www.inkscape.org/) -->

<svg
   width="38.253517mm"
   height="42.707592mm"
   viewBox="0 0 38.253517 42.707592"
   version="1.1"
   id="svg1"
   xmlns="http://www.w3.org/2000/svg"
   xmlns:svg="http://www.w3.org/2000/svg">
  <defs
     id="defs1" />
  <g
     id="layer1"
     transform="translate(-98.233623,-102.88133)">
    <path
       d="m 127.93638,102.88519 c -2.17364,0.0657 -4.32208,0.95481 -5.91902,2.651 l -20.32848,20.32796 c -4.607003,4.60701 -4.607002,12.13668 0,16.74368 a 2.0002,2.0002 0 0 0 0.0791,0.076 c 4.67439,4.18598 11.9095,3.80014 16.11529,-0.84646 l 12.5057,-12.5057 a 2,2 0 0 0 0,-2.82825 2,2 0 0 0 -2.82825,0 l -12.54135,12.54135 a 2.0002,2.0002 0 0 0 -0.0744,0.0801 c -2.74381,3.06397 -7.37819,3.32182 -10.45776,0.60772 -3.03719,-3.08107 -3.03414,-7.97553 0.0305,-11.04016 l 20.37085,-20.37085 a 2.0002,2.0002 0 0 0 0.0413,-0.0439 c 1.70387,-1.8098 4.48547,-1.89562 6.30453,-0.20877 1.70357,1.72534 1.70234,4.44095 -0.015,6.15828 l -20.90673,20.90673 a 2.0002,2.0002 0 0 0 -0.0124,0.0124 c -0.4944,0.5029 -1.23931,0.50724 -1.74459,0.0176 -0.36172,-0.36978 -0.36314,-0.9019 0.004,-1.26917 l 20.95945,-20.95893 a 2,2 0 0 0 0,-2.82825 2,2 0 0 0 -2.82877,0 l -20.95893,20.95893 c -1.89865,1.89865 -1.89865,5.03736 0,6.93601 a 2.0002,2.0002 0 0 0 0.0124,0.0124 c 2.04742,2.01154 5.39784,1.9823 7.40937,-0.0651 l 20.89433,-20.89433 c 3.25283,-3.25284 3.25283,-8.58572 0,-11.83856 a 2.0002,2.0002 0 0 0 -0.0429,-0.0424 c -1.6962,-1.59695 -3.89473,-2.35491 -6.06836,-2.28927 z"
       style="stroke-linecap:round;stroke-linejoin:round"
       id="path3" />
  </g>
</svg>
