<?xml version="1.0" encoding="UTF-8" standalone="no"?>
<!-- Created with Inkscape (http://www.inkscape.org/) -->

<svg
   width="91.937843mm"
   height="91.937859mm"
   viewBox="0 0 91.937843 91.937859"
   version="1.1"
   id="svg1"
   sodipodi:docname="preferences.svg"
   inkscape:version="1.4 (e7c3feb100, 2024-10-09)"
   xmlns:inkscape="http://www.inkscape.org/namespaces/inkscape"
   xmlns:sodipodi="http://sodipodi.sourceforge.net/DTD/sodipodi-0.dtd"
   xmlns="http://www.w3.org/2000/svg"
   xmlns:svg="http://www.w3.org/2000/svg">
  <sodipodi:namedview
     id="namedview1"
     pagecolor="#ffffff"
     bordercolor="#000000"
     borderopacity="0.25"
     inkscape:showpageshadow="2"
     inkscape:pageopacity="0.0"
     inkscape:pagecheckerboard="0"
     inkscape:deskcolor="#d1d1d1"
     inkscape:document-units="mm"
     inkscape:zoom="1.7174953"
     inkscape:cx="174.38185"
     inkscape:cy="197.38046"
     inkscape:window-width="1920"
     inkscape:window-height="1056"
     inkscape:window-x="0"
     inkscape:window-y="0"
     inkscape:window-maximized="1"
     inkscape:current-layer="layer1" />
  <defs
     id="defs1" />
  <g
     id="layer1"
     transform="translate(-60.789411,-106.07244)"
     style="fill:#000000">
    <path
       id="circle3"
       style="display:none;opacity:1;fill:#000000;stroke-width:0.422004;stroke-opacity:0.96027"
       d="m 95.869084,122.65194 v 7.83932 a 19.027771,19.027771 0 0 1 15.367536,18.66501 19.027771,19.027771 0 0 1 -15.367536,18.66501 v 7.84448 A 26.765995,26.765995 0 0 0 118.97465,149.15627 26.765995,26.765995 0 0 0 95.869084,122.65194 Z" />
    <path
       id="path28"
       style="fill:#000000;stroke:none;stroke-width:2.005;stroke-dasharray:none;stroke-opacity:1"
       d="M 99.468704 106.07244 C 98.841634 106.07244 98.503253 106.59965 98.336473 107.20415 L 96.495759 113.87661 A 39.574844 39.574844 0 0 0 87.114419 117.79214 L 81.1029 114.28744 C 80.561178 113.97159 79.945886 113.84404 79.502481 114.28744 L 69.098981 124.69094 C 68.655576 125.13435 68.789466 125.7465 69.098981 126.29188 L 72.535981 132.34836 A 39.574844 39.574844 0 0 0 68.604955 141.72556 L 61.921125 143.48618 C 61.314725 143.64589 60.789411 143.99134 60.789411 144.61841 L 60.789411 159.3312 C 60.789411 159.95827 61.316625 160.29614 61.921125 160.46292 L 68.593586 162.30363 A 39.574844 39.574844 0 0 0 72.509109 171.68549 L 69.004413 177.69649 C 68.688556 178.23821 68.561008 178.85402 69.004413 179.29743 L 79.407913 189.70093 C 79.851319 190.14434 80.463471 190.01045 81.008849 189.70093 L 87.065327 186.26341 A 39.574844 39.574844 0 0 0 96.442532 190.19444 L 98.203148 196.87827 C 98.362858 197.48467 98.708309 198.0105 99.335379 198.0105 L 114.04818 198.0105 C 114.67525 198.0105 115.01311 197.48277 115.17989 196.87827 L 117.0206 190.20632 A 39.574844 39.574844 0 0 0 126.40194 186.2908 L 132.41346 189.7955 C 132.95518 190.11136 133.57099 190.2389 134.0144 189.7955 L 144.4179 179.39148 C 144.8613 178.94808 144.72741 178.33644 144.4179 177.79106 L 140.98038 171.73458 A 39.574844 39.574844 0 0 0 144.91141 162.35634 L 151.59524 160.59624 C 152.20164 160.43653 152.72747 160.0916 152.72747 159.46453 L 152.72747 144.75173 C 152.72747 144.12466 152.19974 143.78627 151.59524 143.6195 L 144.97187 141.79222 A 39.574844 39.574844 0 0 0 141.0548 132.31632 L 144.51247 126.38593 C 144.82833 125.8442 144.95588 125.22891 144.51247 124.78551 L 134.10845 114.38201 C 133.66504 113.9386 133.05341 114.07249 132.50803 114.38201 L 126.53217 117.77302 A 39.574844 39.574844 0 0 0 117.06143 113.84251 L 115.31321 107.20415 C 115.1535 106.59775 114.80857 106.07244 114.1815 106.07244 L 99.468704 106.07244 z M 106.75818 127.8246 A 24.216856 24.216856 0 0 1 130.97479 152.04121 A 24.216856 24.216856 0 0 1 106.75818 176.25782 A 24.216856 24.216856 0 0 1 82.541572 152.04121 A 24.216856 24.216856 0 0 1 106.75818 127.8246 z " />
  </g>
</svg>
