<?xml version="1.0" encoding="UTF-8" standalone="no"?>
<!-- Created with Inkscape (http://www.inkscape.org/) -->

<svg
   width="91.937843mm"
   height="91.937859mm"
   viewBox="0 0 91.937843 91.937859"
   version="1.1"
   id="svg1"
   xmlns="http://www.w3.org/2000/svg"
   xmlns:svg="http://www.w3.org/2000/svg">
  <defs
     id="defs1" />
  <g
     id="layer1"
     transform="translate(-60.789411,-106.07244)">
    <path
       id="circle3"
       style="display:none;opacity:1;fill:#4d4d4d;stroke-width:0.422004;stroke-opacity:0.96027"
       d="m 95.869084,122.65194 v 7.83932 a 19.027771,19.027771 0 0 1 15.367536,18.66501 19.027771,19.027771 0 0 1 -15.367536,18.66501 v 7.84448 A 26.765995,26.765995 0 0 0 118.97465,149.15627 26.765995,26.765995 0 0 0 95.869084,122.65194 Z" />
    <path
       id="path28"
       style="fill:#ffffff;stroke:none;stroke-width:2.005;stroke-dasharray:none;stroke-opacity:1"
       d="m 106.75834,112.46652 a 39.574844,39.574844 0 0 0 -39.574844,39.57485 39.574844,39.574844 0 0 0 39.574844,39.57484 39.574844,39.574844 0 0 0 39.57485,-39.57484 39.574844,39.574844 0 0 0 -39.57485,-39.57485 z m 0,15.35824 a 24.216856,24.216856 0 0 1 24.21661,24.21661 24.216856,24.216856 0 0 1 -24.21661,24.21661 24.216856,24.216856 0 0 1 -24.216608,-24.21661 24.216856,24.216856 0 0 1 24.216608,-24.21661 z" />
    <path
       id="rect28"
       style="fill:#ffffff;stroke-width:2.00448"
       d="m 152.72725,144.75161 v 14.71288 c 0,0.62707 -0.5255,0.97219 -1.1319,1.1319 l -10.52436,2.7719 c -0.60639,0.15971 -1.1319,-0.50483 -1.1319,-1.1319 v -20.38828 c 0,-0.62708 0.52741,-1.29867 1.1319,-1.1319 l 10.52436,2.9035 c 0.6045,0.16677 1.1319,0.50483 1.1319,1.1319 z" />
    <path
       id="path30"
       style="fill:#ffffff;stroke-width:2.00448"
       d="m 144.41791,179.39167 -10.40358,10.40358 c -0.44341,0.4434 -1.05903,0.31586 -1.60075,0 l -9.40188,-5.48182 c -0.54171,-0.31585 -0.4434,-1.15734 0,-1.60075 l 14.41669,-14.41669 c 0.44341,-0.4434 1.29124,-0.54536 1.60075,0 l 5.38877,9.49493 c 0.30951,0.54538 0.4434,1.15735 0,1.60075 z" />
    <path
       id="path31"
       style="fill:#ffffff;stroke-width:2.00448"
       d="M 114.04809,198.01029 H 99.335213 c -0.62707,0 -0.97219,-0.5255 -1.1319,-1.1319 l -2.7719,-10.52436 c -0.15971,-0.60639 0.50483,-1.1319 1.1319,-1.1319 h 20.388277 c 0.62707,0 1.29867,0.52741 1.1319,1.1319 l -2.9035,10.52436 c -0.16678,0.6045 -0.50483,1.1319 -1.1319,1.1319 z" />
    <path
       id="path32"
       style="fill:#ffffff;stroke-width:2.00448"
       d="M 79.408028,189.70094 69.004451,179.29737 c -0.443405,-0.44341 -0.315857,-1.05903 0,-1.60075 l 5.481817,-9.40188 c 0.315851,-0.54171 1.157343,-0.4434 1.600748,0 l 14.416692,14.41669 c 0.443405,0.44341 0.545363,1.29124 0,1.60075 l -9.494931,5.38876 c -0.545378,0.30952 -1.157343,0.44341 -1.600749,0 z" />
    <path
       id="path33"
       style="fill:#ffffff;stroke-width:2.00448"
       d="m 60.78941,159.33112 v -14.71288 c 0,-0.62707 0.5255,-0.97219 1.1319,-1.1319 l 10.52436,-2.7719 c 0.60639,-0.15971 1.1319,0.50483 1.1319,1.1319 v 20.38828 c 0,0.62707 -0.52741,1.29867 -1.1319,1.1319 l -10.52436,-2.9035 c -0.6045,-0.16678 -1.1319,-0.50483 -1.1319,-1.1319 z" />
    <path
       id="path34"
       style="fill:#ffffff;stroke-width:2.00448"
       d="m 69.098759,124.69106 10.403579,-10.40358 c 0.443405,-0.4434 1.059026,-0.31585 1.600748,0 l 9.401875,5.48182 c 0.541714,0.31585 0.443405,1.15734 0,1.60075 l -14.416693,14.41669 c -0.443405,0.44341 -1.291233,0.54536 -1.600748,0 l -5.388761,-9.49493 c -0.309515,-0.54538 -0.443405,-1.15734 0,-1.60075 z" />
    <path
       id="path35"
       style="fill:#ffffff;stroke-width:2.00448"
       d="m 99.468574,106.07244 h 14.712876 c 0.62707,0 0.97219,0.5255 1.1319,1.1319 l 2.7719,10.52436 c 0.15971,0.60639 -0.50483,1.1319 -1.1319,1.1319 H 96.565074 c -0.62707,0 -1.29867,-0.52741 -1.1319,-1.1319 l 2.9035,-10.52436 c 0.16678,-0.6045 0.50483,-1.1319 1.1319,-1.1319 z" />
    <path
       id="path29"
       style="fill:#ffffff;stroke-width:2.00448"
       d="m 134.10864,114.38181 10.40357,10.40358 c 0.44341,0.4434 0.31586,1.05902 0,1.60075 l -5.48182,9.40187 c -0.31585,0.54171 -1.15734,0.44341 -1.60074,0 l -14.41669,-14.41669 c -0.44341,-0.44341 -0.54537,-1.29124 0,-1.60075 l 9.49493,-5.38876 c 0.54538,-0.30952 1.15734,-0.44341 1.60075,0 z" />
  </g>
</svg>
