<?xml version="1.0" encoding="UTF-8" standalone="no"?>
<!-- Created with Inkscape (http://www.inkscape.org/) -->

<svg
   width="62.826656mm"
   height="72.329826mm"
   viewBox="0 0 62.826656 72.329826"
   version="1.1"
   id="svg1"
   sodipodi:docname="sound_off.svg"
   inkscape:version="1.4 (e7c3feb100, 2024-10-09)"
   xmlns:inkscape="http://www.inkscape.org/namespaces/inkscape"
   xmlns:sodipodi="http://sodipodi.sourceforge.net/DTD/sodipodi-0.dtd"
   xmlns="http://www.w3.org/2000/svg"
   xmlns:svg="http://www.w3.org/2000/svg">
  <sodipodi:namedview
     id="namedview1"
     pagecolor="#ffffff"
     bordercolor="#000000"
     borderopacity="0.25"
     inkscape:showpageshadow="2"
     inkscape:pageopacity="0.0"
     inkscape:pagecheckerboard="0"
     inkscape:deskcolor="#d1d1d1"
     inkscape:document-units="mm"
     inkscape:zoom="1.5436809"
     inkscape:cx="-0.97170344"
     inkscape:cy="91.987926"
     inkscape:window-width="1920"
     inkscape:window-height="1056"
     inkscape:window-x="0"
     inkscape:window-y="0"
     inkscape:window-maximized="1"
     inkscape:current-layer="svg1" />
  <defs
     id="defs1" />
  <g
     id="layer4"
     transform="translate(-179.73891,-116.87043)"
     style="stroke:#000000" />
  <g
     id="layer1"
     transform="translate(-182.89002,-117.11282)"
     style="fill:#000000;stroke:none" />
  <g
     id="g1"
     transform="translate(-182.89002,-117.11282)"
     style="fill:#000000;stroke:none" />
  <path
     id="path9"
     style="fill:#000000;stroke:none;stroke-width:0.3;stroke-opacity:0.96027"
     d="m 211.58193,117.06835 c -4.72447,10.73398 -10.21391,15.33303 -14.56604,17.35243 v 37.1936 c 4.36692,1.99617 9.92604,6.60647 14.68489,17.41857 3.55357,0.0343 7.93255,0.006 10.03815,0.0222 -0.01,-14.54517 0.0135,-22.94552 0.0331,-30.85806 l -12.39071,12.42153 c -0.50694,0.50695 -1.32292,0.50695 -1.82987,0 l -3.3047,-3.30471 c -0.50695,-0.50694 -0.50633,-1.32231 0,-1.82986 l 12.41087,-12.44065 -12.44117,-12.44117 c -0.50694,-0.50693 -0.50694,-1.32293 0,-1.82987 l 3.3047,-3.3047 c 0.25347,-0.25347 0.58389,-0.38033 0.91468,-0.38034 0.33079,10e-6 0.66172,0.12687 0.91519,0.38034 l 12.436,12.436 c 0.0101,-7.72832 0.009,-16.28663 -0.045,-30.82758 -3.9169,-0.012 -6.35785,-0.0162 -10.15959,-0.008 z m -16.93489,18.25418 c -2.33165,0.71267 -4.15897,0.7804 -5.06687,0.97049 h -4.85862 c -2.76041,0 -4.98264,2.22223 -4.98264,4.98264 v 23.71741 c 0,2.76042 2.22223,4.98265 4.98264,4.98265 h 6.30814 c 0.9431,0.12153 2.18437,0.31152 3.61735,0.74155 z"
     transform="translate(-179.73891,-116.87043)"
     sodipodi:nodetypes="cccccccscsccsscsccscccssssccc" />
  <path
     id="rect11"
     style="fill:#000000;stroke:none;stroke-width:0.304675;stroke-opacity:0.96027;fill-opacity:1"
     d="m 211.5969,135.66303 c -0.30752,1e-5 -0.61495,0.11783 -0.85059,0.35347 l -3.07217,3.07217 c -0.47128,0.47128 -0.47128,1.2299 0,1.70118 l 12.49588,12.49588 -12.49587,12.49537 c -0.47129,0.47128 -0.47129,1.2299 0,1.70118 l 3.07216,3.07217 c 0.47129,0.47129 1.2299,0.47129 1.70119,0 l 12.49536,-12.49588 12.49588,12.49587 c 0.47128,0.47129 1.22989,0.47129 1.70118,0 l 3.07217,-3.07216 c 0.47128,-0.47129 0.47128,-1.2299 0,-1.70119 l -12.49536,-12.49536 12.49536,-12.49587 c 0.47129,-0.47129 0.47129,-1.2299 0,-1.70119 l -3.07217,-3.07217 c -0.47128,-0.47128 -1.22989,-0.47128 -1.70118,0 l -12.49588,12.49536 -12.49537,-12.49536 c -0.23564,-0.23564 -0.54306,-0.35346 -0.85059,-0.35347 z"
     transform="translate(-182.89002,-117.11282)" />
</svg>
