<?xml version="1.0" encoding="UTF-8" standalone="no"?>
<!-- Created with Inkscape (http://www.inkscape.org/) -->

<svg
   width="81.262611mm"
   height="58.244453mm"
   viewBox="0 0 81.262611 58.244453"
   version="1.1"
   id="svg1"
   xmlns="http://www.w3.org/2000/svg"
   xmlns:svg="http://www.w3.org/2000/svg">
  <defs
     id="defs1" />
  <g
     id="layer1"
     transform="translate(-143.23595,-90.419324)">
    <path
       id="path2"
       style="fill:#ffffff;stroke-width:2.005"
       d="m 222.93856,91.454473 c -1.74388,-1.535038 -4.33653,-1.324395 -5.91857,0.376962 -25.18588,27.085255 -33.63475,42.074775 -39.93095,43.287765 -6.29621,1.213 -25.89812,-20.04452 -25.89812,-20.04452 -1.74388,-1.53505 -5.25287,-0.77829 -6.78792,0.96559 l -0.11745,0.13344 c -1.53505,1.74389 -1.36693,4.38353 0.37696,5.91857 l 28.89583,25.43543 c 0.33093,0.29129 0.69468,0.52063 1.07649,0.69009 1.66315,0.83627 3.73152,0.48866 5.02173,-0.97708 l 43.79239,-49.750218 c 1.53505,-1.743883 1.36693,-4.383526 -0.37696,-5.918571 z" />
  </g>
</svg>
