<?xml version="1.0" encoding="UTF-8" standalone="no"?>
<!-- Created with Inkscape (http://www.inkscape.org/) -->

<svg
   width="82.821495mm"
   height="116.19394mm"
   viewBox="0 0 82.821495 116.19394"
   version="1.1"
   id="svg1"
   xmlns="http://www.w3.org/2000/svg"
   xmlns:svg="http://www.w3.org/2000/svg">
  <defs
     id="defs1" />
  <g
     id="layer1"
     transform="translate(-79.423899,-59.391722)">
    <path
       id="rect1"
       style="fill:#ffffff;stroke:none;stroke-width:0.6;stroke-linecap:round;stroke-linejoin:round;stroke-miterlimit:12.1;stroke-dasharray:none;stroke-opacity:1;paint-order:normal"
       d="m 89.678764,64.992926 v 43.559104 h 5.632214 V 66.956254 a 2.077527,2.077527 135 0 1 2.077527,-2.077527 h 56.905525 a 2.3196702,2.3196702 45 0 1 2.31967,2.31967 V 167.43601 a 2.6626533,2.6626533 135 0 1 -2.66265,2.66265 H 99.160195 a 3.8492172,3.8492172 45 0 1 -3.849217,-3.84922 v -39.66957 h -5.632214 v 43.44695 a 5.5588406,5.5588406 45 0 0 5.558841,5.55884 h 61.545755 a 5.4620295,5.4620295 135 0 0 5.46203,-5.46203 V 64.959093 a 5.5673686,5.5673686 45 0 0 -5.56737,-5.567369 H 95.279966 a 5.601202,5.601202 135 0 0 -5.601202,5.601202 z" />
    <path
       id="rect2"
       style="fill:#ffffff;stroke-width:1.70755"
       d="m 95.167834,64.725248 0.05736,43.826782 h 25.764836 c 0.72803,9e-5 1.31826,-0.59685 1.31827,-1.33325 v -2.70165 c 3e-5,-0.52069 0.26148,-0.97951 0.65887,-1.25108 l -5.2e-4,-0.0646 0.0434,0.0403 c 0.22374,-0.14231 0.48466,-0.23022 0.76791,-0.23461 h 5.2e-4 c 0.39191,-0.006 0.77061,0.14387 1.0542,0.41754 h 5.2e-4 l 13.29841,12.84728 c 0.77894,0.75267 0.77582,2.01173 -0.007,2.76056 l -1.1839,1.13326 -11.88868,11.4763 c -1.03311,0.99813 -2.7449,0.25704 -2.74402,-1.18804 v -2.62258 c -8e-5,-0.69131 -0.55419,-1.25167 -1.23765,-1.2516 H 95.248966 l 0.05685,43.56272 49.156624,-7.25487 a 3.0093079,3.0093079 130.80225 0 0 2.56993,-2.97706 v -85.3004 a 2.335375,2.335375 49.318241 0 0 -1.98468,-2.308894 z" />
    <path
       id="rect3"
       style="fill:#ffffff;stroke:none;stroke-width:0.5368;stroke-linecap:round;stroke-linejoin:round;stroke-miterlimit:12.1;stroke-dasharray:none;stroke-opacity:1;paint-order:normal"
       d="m 125.08435,106.63639 c -0.61488,0.009 -1.10841,0.51055 -1.10845,1.12551 v 2.01373 a 0.99384309,0.99384309 135 0 1 -0.99384,0.99384 H 81.112942 a 1.4294341,1.4294341 135 0 0 -1.429434,1.42943 v 10.48361 a 1.5254067,1.5254067 45 0 0 1.525407,1.52541 l 41.833905,0 a 0.93307716,0.93307716 45 0 1 0.93308,0.93308 v 1.9546 c -6.6e-4,1.07719 1.29017,1.62976 2.06912,0.88574 l 8.96379,-8.55452 0.89297,-0.84491 c 0.59003,-0.55819 0.59231,-1.49671 0.005,-2.05776 L 125.88,106.94748 h -5.1e-4 c -0.21382,-0.204 -0.4993,-0.31574 -0.79479,-0.31109 z"
       transform="matrix(1,0,0,1.0293587,-0.25960581,-3.4490422)" />
  </g>
</svg>
