<svg width="19" height="36" viewBox="0 0 19 36" fill="none" xmlns="http://www.w3.org/2000/svg">
<path d="M11.0247 5.79003C4.63653 6.09972 -0.293332 11.5763 0.0135876 18.0223C0.320507 24.4683 5.74798 29.4428 12.1362 29.1331C14.6589 29.0001 17.0693 28.0384 19 26.3946C17.4504 27.4062 15.665 27.9902 13.8219 28.0881C7.99945 28.3704 3.05266 23.8365 2.77292 17.9614C2.49318 12.0863 6.98643 7.09474 12.8089 6.81247C14.9735 6.70863 17.1174 7.27965 18.9493 8.44798C16.7273 6.59833 13.9019 5.65068 11.0247 5.79003Z" fill="white"/>
<path d="M10.8406 3.05176e-05C10.8406 3.05176e-05 11.0145 14.8976 12.3671 16.2624C13.7196 17.6271 17.8986 17.8027 17.8986 17.8027C17.8986 17.8027 13.7196 17.9783 12.3671 19.343C11.0145 20.7078 10.8405 36 10.8405 36C10.8405 36 10.6666 20.7078 9.31404 19.343C7.96151 17.9783 3.78253 17.8027 3.78253 17.8027C3.78253 17.8027 7.96151 17.6271 9.31404 16.2624C10.6666 14.8976 10.8406 3.05176e-05 10.8406 3.05176e-05Z" fill="white"/>
</svg>
