<svg width="99" height="17" viewBox="0 0 99 17" fill="none" xmlns="http://www.w3.org/2000/svg">
<path d="M14.6875 16H11.0938L5.78125 9.125L4.55078 9.18359V13.5977C4.55078 13.9883 4.57031 14.3073 4.60938 14.5547C4.66146 14.8021 4.75911 15.0039 4.90234 15.1602C5.04557 15.3034 5.2474 15.4076 5.50781 15.4727C5.76823 15.5247 6.11328 15.5638 6.54297 15.5898V16H0.371094V15.5898C0.78776 15.5508 1.11979 15.4987 1.36719 15.4336C1.6276 15.3685 1.82292 15.2578 1.95312 15.1016C2.08333 14.9453 2.16797 14.7305 2.20703 14.457C2.24609 14.1706 2.26562 13.793 2.26562 13.3242V3.67578C2.26562 3.28516 2.24609 2.97266 2.20703 2.73828C2.16797 2.49089 2.08333 2.29557 1.95312 2.15234C1.82292 2.00911 1.6276 1.90495 1.36719 1.83984C1.11979 1.77474 0.78776 1.72266 0.371094 1.68359V1.23438H6.52344C7.61719 1.23438 8.59375 1.38411 9.45312 1.68359C10.3255 1.97005 10.9701 2.36068 11.3867 2.85547C11.6602 3.15495 11.862 3.50651 11.9922 3.91016C12.1224 4.30078 12.1875 4.72396 12.1875 5.17969C12.1875 6.19531 11.8685 6.99609 11.2305 7.58203C10.6055 8.16797 9.58333 8.60417 8.16406 8.89062L12.7539 14.5547C13.0664 14.9193 13.3594 15.1732 13.6328 15.3164C13.9193 15.4596 14.2708 15.5508 14.6875 15.5898V16ZM4.55078 8.36328C5.07161 8.35026 5.52083 8.33073 5.89844 8.30469C6.28906 8.27865 6.6276 8.23958 6.91406 8.1875C7.21354 8.1224 7.48698 8.04427 7.73438 7.95312C7.98177 7.86198 8.23568 7.74479 8.49609 7.60156C8.89974 7.38021 9.21224 7.05469 9.43359 6.625C9.65495 6.18229 9.76562 5.68099 9.76562 5.12109C9.76562 4.06641 9.43359 3.29818 8.76953 2.81641C8.11849 2.32161 7.07682 2.07422 5.64453 2.07422C5.20182 2.07422 4.90885 2.13281 4.76562 2.25C4.6224 2.35417 4.55078 2.5625 4.55078 2.875V8.36328ZM27.168 16H15.1367V15.5898C15.5404 15.5638 15.8659 15.5182 16.1133 15.4531C16.3737 15.388 16.569 15.2839 16.6992 15.1406C16.8424 14.9974 16.9401 14.8021 16.9922 14.5547C17.0443 14.3073 17.0703 13.9883 17.0703 13.5977V3.67578C17.0703 3.28516 17.0443 2.96615 16.9922 2.71875C16.9531 2.47135 16.862 2.27604 16.7188 2.13281C16.5755 1.98958 16.3737 1.88542 16.1133 1.82031C15.8659 1.75521 15.5404 1.70964 15.1367 1.68359V1.23438H26.9727L27.0117 4.4375H26.4844C26.3802 3.92969 26.263 3.52604 26.1328 3.22656C26.0026 2.91406 25.8138 2.67318 25.5664 2.50391C25.332 2.33464 25.013 2.22396 24.6094 2.17188C24.2188 2.11979 23.7109 2.09375 23.0859 2.09375H20.0781C19.7786 2.09375 19.5768 2.13932 19.4727 2.23047C19.3815 2.32161 19.3359 2.52995 19.3359 2.85547V7.79688H22.7539C23.2096 7.79688 23.5807 7.77083 23.8672 7.71875C24.1536 7.66667 24.3815 7.56901 24.5508 7.42578C24.7331 7.26953 24.8698 7.05469 24.9609 6.78125C25.0521 6.50781 25.1367 6.14323 25.2148 5.6875H25.7422V10.8633H25.2148C25.1367 10.3945 25.0521 10.0234 24.9609 9.75C24.8698 9.46354 24.7396 9.2487 24.5703 9.10547C24.401 8.94922 24.1732 8.84505 23.8867 8.79297C23.6003 8.74089 23.2227 8.71484 22.7539 8.71484H19.3359V14.2227C19.3359 14.444 19.349 14.6068 19.375 14.7109C19.401 14.8151 19.4466 14.8932 19.5117 14.9453C19.6159 15.0104 19.8633 15.069 20.2539 15.1211C20.6576 15.1602 21.1328 15.1797 21.6797 15.1797H22.3047C23.099 15.1797 23.763 15.1406 24.2969 15.0625C24.8438 14.9844 25.306 14.8346 25.6836 14.6133C26.0742 14.3919 26.4128 14.0924 26.6992 13.7148C26.9857 13.3372 27.2656 12.8424 27.5391 12.2305H28.1836L27.168 16ZM38.9258 5.6875H38.3789C38.2878 5.36198 38.1966 5.07552 38.1055 4.82812C38.0273 4.58073 37.9297 4.35938 37.8125 4.16406C37.7083 3.95573 37.5911 3.77344 37.4609 3.61719C37.3307 3.44792 37.181 3.27214 37.0117 3.08984C36.2305 2.26953 35.319 1.85938 34.2773 1.85938C33.5872 1.85938 33.0273 2.04167 32.5977 2.40625C32.181 2.77083 31.9727 3.26562 31.9727 3.89062C31.9727 4.5026 32.2266 5.07552 32.7344 5.60938C33.2422 6.14323 34.0755 6.72917 35.2344 7.36719C36.7188 8.17448 37.7865 8.96224 38.4375 9.73047C39.1016 10.4987 39.4336 11.3385 39.4336 12.25C39.4336 12.8229 39.3164 13.3568 39.082 13.8516C38.8477 14.3464 38.5286 14.776 38.125 15.1406C37.7214 15.5052 37.2396 15.7917 36.6797 16C36.1198 16.2083 35.5208 16.3125 34.8828 16.3125C34.4271 16.3125 33.9779 16.2734 33.5352 16.1953C33.0924 16.1172 32.6628 15.987 32.2461 15.8047C32.0247 15.7266 31.8229 15.668 31.6406 15.6289C31.4583 15.5768 31.3086 15.5508 31.1914 15.5508C31.0221 15.5508 30.8789 15.6224 30.7617 15.7656C30.6445 15.9089 30.5794 16.0846 30.5664 16.293H30.0781L29.4141 11.5664H29.9219C30.4818 12.9336 31.1198 13.9362 31.8359 14.5742C32.5521 15.1992 33.418 15.5117 34.4336 15.5117C35.2539 15.5117 35.9115 15.2839 36.4062 14.8281C36.9141 14.3724 37.168 13.7734 37.168 13.0312C37.168 12.7448 37.1354 12.4909 37.0703 12.2695C37.0182 12.0482 36.9401 11.8594 36.8359 11.7031C36.5755 11.2865 36.1589 10.8568 35.5859 10.4141C35.026 9.97135 34.349 9.52865 33.5547 9.08594C32.9297 8.76042 32.3958 8.4349 31.9531 8.10938C31.5104 7.78385 31.1458 7.44531 30.8594 7.09375C30.5859 6.74219 30.3841 6.3776 30.2539 6C30.1237 5.6224 30.0586 5.21224 30.0586 4.76953C30.0586 3.53255 30.4883 2.56901 31.3477 1.87891C31.7122 1.57943 32.1159 1.35156 32.5586 1.19531C33.0013 1.02604 33.4375 0.941406 33.8672 0.941406C34.2578 0.941406 34.6484 0.986979 35.0391 1.07812C35.4427 1.15625 35.8529 1.27344 36.2695 1.42969C36.4779 1.52083 36.6667 1.58594 36.8359 1.625C37.0052 1.66406 37.1484 1.68359 37.2656 1.68359C37.6302 1.68359 37.8646 1.4362 37.9688 0.941406H38.4375L38.9258 5.6875ZM54.1992 5.96094C54.0951 5.59635 53.9909 5.28385 53.8867 5.02344C53.7826 4.75 53.6719 4.50911 53.5547 4.30078C53.4505 4.07943 53.3268 3.88411 53.1836 3.71484C53.0534 3.54557 52.8971 3.36979 52.7148 3.1875C52.2721 2.73177 51.7643 2.39323 51.1914 2.17188C50.6315 1.9375 50.0326 1.82031 49.3945 1.82031C48.5872 1.82031 47.8516 1.97656 47.1875 2.28906C46.5365 2.60156 45.9766 3.05078 45.5078 3.63672C45.0521 4.20964 44.7005 4.90625 44.4531 5.72656C44.2057 6.54688 44.082 7.45833 44.082 8.46094C44.082 9.76302 44.2578 10.9023 44.6094 11.8789C44.9609 12.8555 45.4622 13.6172 46.1133 14.1641C47.0898 14.9453 48.2552 15.3359 49.6094 15.3359C50.5339 15.3359 51.3867 15.1602 52.168 14.8086C52.9492 14.457 53.7565 13.8841 54.5898 13.0898L54.9805 13.4805C54.3034 14.3789 53.4375 15.0755 52.3828 15.5703C51.3411 16.0651 50.1823 16.3125 48.9062 16.3125C47.7995 16.3125 46.7904 16.1302 45.8789 15.7656C44.9674 15.401 44.1862 14.8932 43.5352 14.2422C42.8841 13.5781 42.3763 12.7839 42.0117 11.8594C41.6602 10.9349 41.4844 9.90625 41.4844 8.77344C41.4844 7.48438 41.7057 6.32552 42.1484 5.29688C42.5911 4.25521 43.2422 3.38281 44.1016 2.67969C44.7786 2.13281 45.5404 1.70964 46.3867 1.41016C47.2331 1.09766 48.0859 0.941406 48.9453 0.941406C50.0521 0.941406 51.1458 1.1237 52.2266 1.48828C52.5911 1.61849 52.8841 1.68359 53.1055 1.68359C53.3268 1.68359 53.5156 1.61849 53.6719 1.48828C53.8411 1.35807 53.9583 1.17578 54.0234 0.941406H54.4922L54.707 5.96094H54.1992ZM68.0469 16H56.0156V15.5898C56.4193 15.5638 56.7448 15.5182 56.9922 15.4531C57.2526 15.388 57.4479 15.2839 57.5781 15.1406C57.7214 14.9974 57.819 14.8021 57.8711 14.5547C57.9232 14.3073 57.9492 13.9883 57.9492 13.5977V3.67578C57.9492 3.28516 57.9232 2.96615 57.8711 2.71875C57.832 2.47135 57.7409 2.27604 57.5977 2.13281C57.4544 1.98958 57.2526 1.88542 56.9922 1.82031C56.7448 1.75521 56.4193 1.70964 56.0156 1.68359V1.23438H67.8516L67.8906 4.4375H67.3633C67.2591 3.92969 67.1419 3.52604 67.0117 3.22656C66.8815 2.91406 66.6927 2.67318 66.4453 2.50391C66.2109 2.33464 65.8919 2.22396 65.4883 2.17188C65.0977 2.11979 64.5898 2.09375 63.9648 2.09375H60.957C60.6576 2.09375 60.4557 2.13932 60.3516 2.23047C60.2604 2.32161 60.2148 2.52995 60.2148 2.85547V7.79688H63.6328C64.0885 7.79688 64.4596 7.77083 64.7461 7.71875C65.0326 7.66667 65.2604 7.56901 65.4297 7.42578C65.612 7.26953 65.7487 7.05469 65.8398 6.78125C65.931 6.50781 66.0156 6.14323 66.0938 5.6875H66.6211V10.8633H66.0938C66.0156 10.3945 65.931 10.0234 65.8398 9.75C65.7487 9.46354 65.6185 9.2487 65.4492 9.10547C65.2799 8.94922 65.0521 8.84505 64.7656 8.79297C64.4792 8.74089 64.1016 8.71484 63.6328 8.71484H60.2148V14.2227C60.2148 14.444 60.2279 14.6068 60.2539 14.7109C60.2799 14.8151 60.3255 14.8932 60.3906 14.9453C60.4948 15.0104 60.7422 15.069 61.1328 15.1211C61.5365 15.1602 62.0117 15.1797 62.5586 15.1797H63.1836C63.9779 15.1797 64.6419 15.1406 65.1758 15.0625C65.7227 14.9844 66.1849 14.8346 66.5625 14.6133C66.9531 14.3919 67.2917 14.0924 67.5781 13.7148C67.8646 13.3372 68.1445 12.8424 68.418 12.2305H69.0625L68.0469 16ZM82.6172 16.2539L72.7539 3.98828V12.7188C72.7539 13.2917 72.7799 13.7604 72.832 14.125C72.8971 14.4766 73.0078 14.7565 73.1641 14.9648C73.3203 15.1732 73.5352 15.3229 73.8086 15.4141C74.082 15.5052 74.4336 15.5638 74.8633 15.5898V16H69.6289V15.5898C70.0846 15.5508 70.4492 15.4922 70.7227 15.4141C71.0091 15.3229 71.224 15.1732 71.3672 14.9648C71.5234 14.7565 71.6276 14.4766 71.6797 14.125C71.7318 13.7604 71.7578 13.2917 71.7578 12.7188V2.91406C71.5365 2.65365 71.3477 2.44531 71.1914 2.28906C71.0352 2.11979 70.8789 1.99609 70.7227 1.91797C70.5664 1.82682 70.4036 1.76823 70.2344 1.74219C70.0651 1.70312 69.8633 1.68359 69.6289 1.68359V1.23438H73.4375L82.0117 12.0352V4.51562C82.0117 3.16146 81.7969 2.32812 81.3672 2.01562C81.1979 1.91146 81.0091 1.83984 80.8008 1.80078C80.6055 1.7487 80.2995 1.70964 79.8828 1.68359V1.23438H85.0977V1.68359C84.681 1.70964 84.3685 1.75521 84.1602 1.82031C83.9648 1.88542 83.7956 1.97005 83.6523 2.07422C83.2096 2.36068 82.9883 3.17448 82.9883 4.51562V16.2539H82.6172ZM89.9023 2.17188C89.2773 2.17188 88.763 2.20443 88.3594 2.26953C87.9688 2.33464 87.6432 2.47135 87.3828 2.67969C87.1354 2.88802 86.9336 3.18099 86.7773 3.55859C86.6341 3.92318 86.4974 4.41146 86.3672 5.02344H85.8203L85.957 1.23438H98.5352L98.6719 5.02344H98.125C97.9948 4.41146 97.8516 3.92318 97.6953 3.55859C97.5521 3.18099 97.3568 2.88802 97.1094 2.67969C96.862 2.47135 96.5365 2.33464 96.1328 2.26953C95.7292 2.20443 95.2083 2.17188 94.5703 2.17188H93.3789V13.5977C93.3789 14.0013 93.4049 14.3268 93.457 14.5742C93.5091 14.8216 93.6068 15.0169 93.75 15.1602C93.9062 15.3034 94.1211 15.4076 94.3945 15.4727C94.681 15.5247 95.0521 15.5638 95.5078 15.5898V16H89.0234V15.5898C89.4792 15.5638 89.8438 15.5247 90.1172 15.4727C90.3906 15.4076 90.599 15.2969 90.7422 15.1406C90.8984 14.9714 90.9961 14.7435 91.0352 14.457C91.0872 14.1706 91.1133 13.793 91.1133 13.3242V2.17188H89.9023Z" fill="white"/>
</svg>
