<?xml version="1.0" encoding="UTF-8" standalone="no"?>
<!-- Created with Inkscape (http://www.inkscape.org/) -->

<svg
   width="77.097099mm"
   height="72.329865mm"
   viewBox="0 0 77.097099 72.329865"
   version="1.1"
   id="svg1"
   xmlns="http://www.w3.org/2000/svg"
   xmlns:svg="http://www.w3.org/2000/svg">
  <defs
     id="defs1" />
  <g
     id="layer4"
     transform="translate(-50.312173,-113.29284)">
    <path
       id="rect1"
       style="fill:#ffffff;stroke-width:0.3;stroke-opacity:0.96027"
       d="m 83.819173,113.29334 c -0.964221,-0.007 -1.638975,0.0637 -1.724442,0.25787 -4.724476,10.73399 -10.15344,15.27257 -14.505575,17.29197 v 37.19359 c 4.366919,1.99617 9.835087,6.51552 14.593941,17.32763 0.34187,0.77669 10.114112,-0.41854 10.114112,-0.70487 v -65.38567 c 0,-0.2402 -0.03515,-0.47198 -0.08837,-0.69764 v -4.32014 c 0,-0.21475 -5.497006,-0.94082 -8.389669,-0.96274 z m -18.598865,18.45159 c -2.331662,0.71267 -4.158967,0.78039 -5.066874,0.97048 h -4.858618 c -2.760412,0 -4.982642,2.22223 -4.982642,4.98265 v 23.71741 c 0,2.76042 2.22223,4.98264 4.982642,4.98264 h 6.308142 c 0.943104,0.12153 2.184358,0.31153 3.61735,0.74156 z" />
  </g>
  <g
     id="layer1"
     transform="translate(-50.312173,-113.29284)">
    <path
       id="path3"
       style="opacity:1;fill:#ffffff;stroke-width:0.3;stroke-opacity:0.96027"
       d="m 95.869084,130.48506 v 7.5861 a 11.69924,11.69924 0 0 1 8.038786,11.08511 11.69924,11.69924 0 0 1 -8.038786,11.11095 v 7.55975 a 19.027771,19.027771 0 0 0 15.367536,-18.6707 19.027771,19.027771 0 0 0 -15.367536,-18.67121 z" />
    <path
       id="circle4"
       style="opacity:1;fill:#ffffff;stroke-width:0.55499;stroke-opacity:0.96027"
       d="m 95.869084,114.21732 v 8.4615 a 26.765995,26.765995 0 0 1 23.105566,26.47745 26.765995,26.765995 0 0 1 -23.105566,26.50433 v 8.50129 A 35.200748,35.200748 0 0 0 127.40928,149.15627 35.200748,35.200748 0 0 0 95.869084,114.21732 Z" />
    <path
       id="circle3"
       style="display:none;opacity:1;fill:#4d4d4d;stroke-width:0.422004;stroke-opacity:0.96027"
       d="m 95.869084,122.65194 v 7.83932 a 19.027771,19.027771 0 0 1 15.367536,18.66501 19.027771,19.027771 0 0 1 -15.367536,18.66501 v 7.84448 A 26.765995,26.765995 0 0 0 118.97465,149.15627 26.765995,26.765995 0 0 0 95.869084,122.65194 Z" />
  </g>
</svg>
