<?xml version="1.0" encoding="UTF-8" standalone="no"?>
<!-- Created with Inkscape (http://www.inkscape.org/) -->

<svg
   width="62.826656mm"
   height="72.329826mm"
   viewBox="0 0 62.826656 72.329826"
   version="1.1"
   id="svg1"
   xmlns="http://www.w3.org/2000/svg"
   xmlns:svg="http://www.w3.org/2000/svg">
  <defs
     id="defs1" />
  <g
     id="layer4"
     transform="translate(-179.73891,-116.87043)">
    <path
       id="path9"
       style="fill:#ffffff;stroke-width:0.3;stroke-opacity:0.96027"
       d="m 213.2459,116.8709 c -0.96422,-0.007 -1.63897,0.0637 -1.72444,0.25787 -4.72447,10.73398 -10.15345,15.27257 -14.50558,17.29197 v 37.19359 c 4.36692,1.99617 9.83509,6.51553 14.59394,17.32763 0.34187,0.77668 10.11411,-0.41854 10.11411,-0.70487 v -25.54108 l -8.56743,8.56744 c -0.85163,0.85164 -2.26756,0.85164 -3.11919,0 l -3.07268,-3.07217 c -0.85165,-0.85162 -0.85165,-2.26756 0,-3.11919 l 11.78739,-11.78687 -11.78739,-11.7874 c -0.85163,-0.85164 -0.85163,-2.26704 0,-3.11867 l 3.07268,-3.07061 c 0.42577,-0.42577 0.99655,-0.64853 1.56011,-0.64854 0.56355,1e-5 1.13332,0.22278 1.55908,0.64854 l 8.56743,8.5664 v -21.02352 c 0,-0.2402 -0.0352,-0.47198 -0.0884,-0.69764 v -4.32015 c 0,-0.21475 -5.497,-0.94081 -8.38967,-0.96273 z m -18.59887,18.45159 c -2.33165,0.71267 -4.15897,0.78039 -5.06687,0.97048 h -4.85862 c -2.76041,0 -4.98264,2.22223 -4.98264,4.98264 v 23.71742 c 0,2.76042 2.22223,4.98264 4.98264,4.98264 h 6.30814 c 0.9431,0.12153 2.18437,0.31153 3.61735,0.74156 z m 16.95039,1.34359 c -0.0515,0 -0.0966,0.0129 -0.14211,0.0584 l -3.07268,3.07216 c -0.0909,0.0909 -0.0909,0.19281 0,0.28371 l 13.20539,13.20488 -13.20539,13.20488 c -0.0909,0.0909 -0.0909,0.19228 0,0.28318 l 3.07268,3.07268 c 0.0909,0.0909 0.19229,0.0909 0.28319,0 l 9.98543,-9.98595 v -13.14959 l -9.98543,-9.98595 c -0.0455,-0.0455 -0.0896,-0.0584 -0.14108,-0.0584 z" />
  </g>
  <g
     id="layer1"
     transform="translate(-179.73891,-116.87043)">
    <path
       id="rect11"
       style="fill:#ffffff;stroke-width:0.304675;stroke-opacity:0.96027"
       d="m 211.5969,135.66303 c -0.30752,1e-5 -0.61495,0.11783 -0.85059,0.35347 l -3.07217,3.07217 c -0.47128,0.47128 -0.47128,1.2299 0,1.70118 l 12.49588,12.49588 -12.49587,12.49537 c -0.47129,0.47128 -0.47129,1.2299 0,1.70118 l 3.07216,3.07217 c 0.47129,0.47129 1.2299,0.47129 1.70119,0 l 12.49536,-12.49588 12.49588,12.49587 c 0.47128,0.47129 1.22989,0.47129 1.70118,0 l 3.07217,-3.07216 c 0.47128,-0.47129 0.47128,-1.2299 0,-1.70119 l -12.49536,-12.49536 12.49536,-12.49587 c 0.47129,-0.47129 0.47129,-1.2299 0,-1.70119 l -3.07217,-3.07217 c -0.47128,-0.47128 -1.22989,-0.47128 -1.70118,0 l -12.49588,12.49536 -12.49537,-12.49536 c -0.23564,-0.23564 -0.54306,-0.35346 -0.85059,-0.35347 z" />
  </g>
</svg>
