<?xml version="1.0" encoding="UTF-8" standalone="no"?>
<svg
   width="115.48984"
   height="31.032173"
   viewBox="0 0 115.48984 31.032173"
   fill="none"
   version="1.1"
   id="svg1"
   xml:space="preserve"
   xmlns="http://www.w3.org/2000/svg"
   xmlns:svg="http://www.w3.org/2000/svg"><defs
     id="defs1" /><path
     d="m 31.505441,24.964866 h -3.5937 l -5.31255,-6.875 -1.23047,0.05859 v 4.41411 c 0,0.3906 0.01953,0.7096 0.0586,0.957 0.05208,0.2474 0.14973,0.4492 0.29296,0.6055 0.14323,0.1432 0.34506,0.2474 0.60547,0.3125 0.26042,0.052 0.60547,0.0911 1.03516,0.1171 v 0.4102 h -6.171876 v -0.4102 c 0.416666,-0.039 0.748696,-0.0911 0.996096,-0.1562 0.26041,-0.0651 0.45573,-0.1758 0.58593,-0.332 0.13021,-0.1563 0.21485,-0.3711 0.25391,-0.6446 0.03906,-0.2864 0.05859,-0.664 0.05859,-1.1328 v -9.64842 c 0,-0.39062 -0.01953,-0.70312 -0.05859,-0.9375 -0.03906,-0.24739 -0.1237,-0.44271 -0.25391,-0.58594 -0.1302,-0.14323 -0.32552,-0.24739 -0.58593,-0.3125 -0.2474,-0.0651 -0.57943,-0.11718 -0.996096,-0.15625 v -0.44921 h 6.152346 c 1.09375,0 2.07031,0.14973 2.92968,0.44921 0.87238,0.28646 1.51698,0.67709 1.93358,1.17188 0.2735,0.29948 0.4753,0.65104 0.6055,1.05469 0.1302,0.39062 0.1953,0.8138 0.1953,1.26953 0,1.01562 -0.319,1.8164 -0.957,2.40234 -0.625,0.58594 -1.64717,1.02214 -3.06644,1.30859 l 4.58984,5.66408 c 0.3125,0.3646 0.6055,0.6185 0.8789,0.7617 0.2865,0.1432 0.638,0.2344 1.0547,0.2734 z m -10.13672,-7.63672 c 0.52083,-0.01302 0.97005,-0.03255 1.34766,-0.05859 0.39062,-0.02604 0.72916,-0.06511 1.01562,-0.11719 0.29948,-0.0651 0.57292,-0.14323 0.82032,-0.23438 0.24739,-0.09114 0.5013,-0.20833 0.76171,-0.35156 0.40365,-0.22135 0.71615,-0.54687 0.9375,-0.97656 0.22136,-0.44271 0.33203,-0.94401 0.33203,-1.50391 0,-1.05468 -0.33203,-1.82291 -0.99609,-2.30468 -0.65104,-0.4948 -1.69271,-0.74219 -3.125,-0.74219 -0.44271,0 -0.73568,0.05859 -0.87891,0.17578 -0.14322,0.10417 -0.21484,0.3125 -0.21484,0.625 z m 22.61722,7.63672 h -12.0313 v -0.4102 c 0.4037,-0.026 0.7292,-0.0716 0.9766,-0.1367 0.2604,-0.0651 0.4557,-0.1692 0.5859,-0.3125 0.1432,-0.1432 0.2409,-0.3385 0.293,-0.5859 0.0521,-0.2474 0.0781,-0.5664 0.0781,-0.957 v -9.92192 c 0,-0.39062 -0.026,-0.70963 -0.0781,-0.95703 -0.0391,-0.2474 -0.1302,-0.44271 -0.2734,-0.58594 -0.1433,-0.14323 -0.3451,-0.24739 -0.6055,-0.3125 -0.2474,-0.0651 -0.5729,-0.11067 -0.9766,-0.13672 v -0.44921 h 11.836 l 0.039,3.20312 h -0.5273 c -0.1042,-0.50781 -0.2214,-0.91146 -0.3516,-1.21094 -0.1302,-0.3125 -0.319,-0.55338 -0.5664,-0.72265 -0.2344,-0.16927 -0.5534,-0.27995 -0.957,-0.33203 -0.3906,-0.05209 -0.8985,-0.07813 -1.5235,-0.07813 h -3.0078 c -0.2995,0 -0.5013,0.04557 -0.6054,0.13672 -0.0912,0.09114 -0.1368,0.29948 -0.1368,0.625 v 4.94141 h 3.418 c 0.4557,0 0.8268,-0.02605 1.1133,-0.07813 0.2864,-0.05208 0.5143,-0.14974 0.6836,-0.29297 0.1823,-0.15625 0.319,-0.37109 0.4101,-0.64453 0.0912,-0.27344 0.1758,-0.63802 0.2539,-1.09375 h 0.5274 v 5.1758 h -0.5274 c -0.0781,-0.4688 -0.1627,-0.8399 -0.2539,-1.1133 -0.0911,-0.28646 -0.2213,-0.5013 -0.3906,-0.64453 -0.1693,-0.15625 -0.3971,-0.26042 -0.6836,-0.3125 -0.2864,-0.05208 -0.664,-0.07813 -1.1328,-0.07813 h -3.418 v 5.50786 c 0,0.2213 0.0131,0.3841 0.0391,0.4882 0.026,0.1042 0.0716,0.1823 0.1367,0.2344 0.1042,0.0651 0.3516,0.1237 0.7422,0.1758 0.4037,0.0391 0.8789,0.0586 1.4258,0.0586 h 0.625 c 0.7943,0 1.4583,-0.0391 1.9922,-0.1172 0.5469,-0.0781 1.0091,-0.2279 1.3867,-0.4492 0.3906,-0.2214 0.7292,-0.5209 1.0156,-0.8985 0.2865,-0.3776 0.5664,-0.8724 0.8399,-1.4843 h 0.6445 z m 11.7578,-10.3125 h -0.5469 c -0.0911,-0.32552 -0.1823,-0.61198 -0.2734,-0.85938 -0.0782,-0.24739 -0.1758,-0.46874 -0.293,-0.66406 -0.1042,-0.20833 -0.2214,-0.39062 -0.3516,-0.54687 -0.1302,-0.16927 -0.2799,-0.34505 -0.4492,-0.52735 -0.7812,-0.82031 -1.6927,-1.23046 -2.7344,-1.23046 -0.6901,0 -1.25,0.18229 -1.6796,0.54687 -0.4167,0.36458 -0.625,0.85937 -0.625,1.48437 0,0.61198 0.2539,1.1849 0.7617,1.71876 0.5078,0.53385 1.3411,1.11979 2.5,1.75781 1.4844,0.80729 2.5521,1.59505 3.2031,2.36328 0.6641,0.76823 0.9961,1.60803 0.9961,2.51953 0,0.5729 -0.1172,1.1068 -0.3516,1.6016 -0.2343,0.4948 -0.5534,0.9244 -0.957,1.289 -0.4036,0.3646 -0.8854,0.6511 -1.4453,0.8594 -0.5599,0.2083 -1.1589,0.3125 -1.7969,0.3125 -0.4557,0 -0.9049,-0.0391 -1.3476,-0.1172 -0.4428,-0.0781 -0.8724,-0.2083 -1.2891,-0.3906 -0.2214,-0.0781 -0.4232,-0.1367 -0.6055,-0.1758 -0.1823,-0.0521 -0.332,-0.0781 -0.4492,-0.0781 -0.1693,0 -0.3125,0.0716 -0.4297,0.2148 -0.1172,0.1433 -0.1823,0.319 -0.1953,0.5274 h -0.4883 l -0.664,-4.7266 h 0.5078 c 0.5599,1.3672 1.1979,2.3698 1.914,3.0078 0.7162,0.625 1.5821,0.9375 2.5977,0.9375 0.8203,0 1.4779,-0.2278 1.9726,-0.6836 0.5079,-0.4557 0.7618,-1.0547 0.7618,-1.7969 0,-0.2864 -0.0326,-0.5403 -0.0977,-0.7617 -0.0521,-0.2213 -0.1302,-0.4101 -0.2344,-0.5664 -0.2604,-0.4166 -0.677,-0.8463 -1.25,-1.289 -0.5599,-0.44275 -1.2369,-0.88545 -2.0312,-1.32816 -0.625,-0.32552 -1.1589,-0.65104 -1.6016,-0.97656 -0.4427,-0.32553 -0.8073,-0.66407 -1.0937,-1.01563 -0.2735,-0.35156 -0.4753,-0.71615 -0.6055,-1.09375 -0.1302,-0.3776 -0.1953,-0.78776 -0.1953,-1.23047 0,-1.23698 0.4297,-2.20052 1.2891,-2.89062 0.3645,-0.29948 0.7682,-0.52735 1.2109,-0.6836 0.4427,-0.1692702 0.8789,-0.2539042 1.3086,-0.2539042 0.3906,0 0.7812,0.045573 1.1719,0.1367142 0.4036,0.07813 0.8138,0.19532 1.2304,0.35157 0.2084,0.09114 0.3972,0.15625 0.5664,0.19531 0.1693,0.03906 0.3125,0.05859 0.4297,0.05859 0.3646,0 0.599,-0.24739 0.7032,-0.7421842 h 0.4687 z m 15.2734,0.27344 c -0.1041,-0.36459 -0.2083,-0.67709 -0.3125,-0.9375 -0.1041,-0.27344 -0.2148,-0.51433 -0.332,-0.72266 -0.1042,-0.22135 -0.2279,-0.41667 -0.3711,-0.58594 -0.1302,-0.16927 -0.2865,-0.34505 -0.4688,-0.52734 -0.4427,-0.45573 -0.9505,-0.79427 -1.5234,-1.01562 -0.5599,-0.23438 -1.1588,-0.35157 -1.7969,-0.35157 -0.8073,0 -1.5429,0.15625 -2.207,0.46875 -0.651,0.3125 -1.2109,0.76172 -1.6797,1.34766 -0.4557,0.57292 -0.8073,1.26953 -1.0547,2.08984 -0.2474,0.82032 -0.3711,1.73177 -0.3711,2.73438 0,1.30208 0.1758,2.44136 0.5274,3.41796 0.3515,0.9766 0.8528,1.7383 1.5039,2.2852 0.9765,0.7812 2.1419,1.1718 3.4961,1.1718 0.9245,0 1.7773,-0.1757 2.5586,-0.5273 0.7812,-0.3516 1.5885,-0.9245 2.4218,-1.7188 l 0.3907,0.3907 c -0.6771,0.8984 -1.543,1.595 -2.5977,2.0898 -1.0417,0.4948 -2.2005,0.7422 -3.4766,0.7422 -1.1067,0 -2.1158,-0.1823 -3.0273,-0.5469 -0.9115,-0.3646 -1.6927,-0.8724 -2.3437,-1.5234 -0.6511,-0.6641 -1.1589,-1.4583 -1.5235,-2.3828 -0.3515,-0.9245 -0.5273,-1.95315 -0.5273,-3.08596 0,-1.28906 0.2213,-2.44792 0.664,-3.47656 0.4427,-1.04167 1.0938,-1.91407 1.9532,-2.61719 0.677,-0.54688 1.4388,-0.97005 2.2851,-1.26953 0.8464,-0.3125 1.6992,-0.4687542 2.5586,-0.4687542 1.1068,0 2.2005,0.1822942 3.2813,0.5468742 0.3645,0.13021 0.6575,0.19531 0.8789,0.19531 0.2213,0 0.4101,-0.0651 0.5664,-0.19531 0.1692,-0.13021 0.2864,-0.3125 0.3515,-0.5468742 h 0.4688 l 0.2148,5.0195342 z m 13.8477,10.03906 h -12.0313 v -0.4102 c 0.4037,-0.026 0.7292,-0.0716 0.9766,-0.1367 0.2604,-0.0651 0.4557,-0.1692 0.5859,-0.3125 0.1433,-0.1432 0.2409,-0.3385 0.293,-0.5859 0.0521,-0.2474 0.0781,-0.5664 0.0781,-0.957 v -9.92192 c 0,-0.39062 -0.026,-0.70963 -0.0781,-0.95703 -0.0391,-0.2474 -0.1302,-0.44271 -0.2734,-0.58594 -0.1433,-0.14323 -0.3451,-0.24739 -0.6055,-0.3125 -0.2474,-0.0651 -0.5729,-0.11067 -0.9766,-0.13672 v -0.44921 h 11.836 l 0.039,3.20312 h -0.5273 c -0.1042,-0.50781 -0.2214,-0.91146 -0.3516,-1.21094 -0.1302,-0.3125 -0.319,-0.55338 -0.5664,-0.72265 -0.2344,-0.16927 -0.5534,-0.27995 -0.957,-0.33203 -0.3906,-0.05209 -0.8985,-0.07813 -1.5235,-0.07813 h -3.0078 c -0.2994,0 -0.5013,0.04557 -0.6054,0.13672 -0.0912,0.09114 -0.1368,0.29948 -0.1368,0.625 v 4.94141 h 3.418 c 0.4557,0 0.8268,-0.02605 1.1133,-0.07813 0.2865,-0.05208 0.5143,-0.14974 0.6836,-0.29297 0.1823,-0.15625 0.319,-0.37109 0.4101,-0.64453 0.0912,-0.27344 0.1758,-0.63802 0.254,-1.09375 h 0.5273 v 5.1758 h -0.5273 c -0.0782,-0.4688 -0.1628,-0.8399 -0.254,-1.1133 -0.0911,-0.28646 -0.2213,-0.5013 -0.3906,-0.64453 -0.1693,-0.15625 -0.3971,-0.26042 -0.6836,-0.3125 -0.2864,-0.05208 -0.664,-0.07813 -1.1328,-0.07813 h -3.418 v 5.50786 c 0,0.2213 0.0131,0.3841 0.0391,0.4882 0.026,0.1042 0.0716,0.1823 0.1367,0.2344 0.1042,0.0651 0.3516,0.1237 0.7422,0.1758 0.4037,0.0391 0.8789,0.0586 1.4258,0.0586 h 0.625 c 0.7943,0 1.4583,-0.0391 1.9922,-0.1172 0.5469,-0.0781 1.0091,-0.2279 1.3867,-0.4492 0.3906,-0.2214 0.7292,-0.5209 1.0156,-0.8985 0.2865,-0.3776 0.5664,-0.8724 0.8399,-1.4843 h 0.6445 z m 14.5703,0.2539 -9.8633,-12.26562 v 8.73052 c 0,0.5729 0.026,1.0416 0.0781,1.4062 0.0651,0.3516 0.1758,0.6315 0.3321,0.8398 0.1562,0.2084 0.3711,0.3581 0.6445,0.4493 0.2734,0.0911 0.625,0.1497 1.0547,0.1757 v 0.4102 h -5.2344 v -0.4102 c 0.4557,-0.039 0.8203,-0.0976 1.0938,-0.1757 0.2864,-0.0912 0.5013,-0.2409 0.6445,-0.4493 0.1562,-0.2083 0.2604,-0.4882 0.3125,-0.8398 0.0521,-0.3646 0.0781,-0.8333 0.0781,-1.4062 v -9.80474 c -0.2213,-0.26041 -0.4101,-0.46875 -0.5664,-0.625 -0.1562,-0.16927 -0.3125,-0.29297 -0.4687,-0.37109 -0.1563,-0.09115 -0.3191,-0.14974 -0.4883,-0.17578 -0.1693,-0.03907 -0.3711,-0.0586 -0.6055,-0.0586 v -0.44921 h 3.8086 l 8.5742,10.80082 v -7.51958 c 0,-1.35416 -0.2148,-2.1875 -0.6445,-2.5 -0.1693,-0.10416 -0.3581,-0.17578 -0.5664,-0.21484 -0.1953,-0.05208 -0.5013,-0.09114 -0.918,-0.11719 v -0.44921 h 5.214899 v 0.44921 c -0.4167,0.02605 -0.7292,0.07162 -0.9375,0.13672 -0.1954,0.06511 -0.3646,0.14974 -0.5079,0.25391 -0.4427,0.28646 -0.663999,1.10026 -0.663999,2.4414 v 11.73828 z m 7.285099,-14.08202 c -0.625,0 -1.1393,0.03255 -1.5429,0.09765 -0.3906,0.06511 -0.7162,0.20182 -0.9766,0.41016 -0.2474,0.20833 -0.4492,0.5013 -0.6055,0.8789 -0.1432,0.36459 -0.2799,0.85287 -0.4101,1.46485 h -0.5469 l 0.1367,-3.78906 h 12.5782 l 0.1367,3.78906 h -0.5469 c -0.1302,-0.61198 -0.2734,-1.10026 -0.4297,-1.46485 -0.1432,-0.3776 -0.3385,-0.67057 -0.5859,-0.8789 -0.2474,-0.20834 -0.5729,-0.34505 -0.9766,-0.41016 -0.4036,-0.0651 -0.9245,-0.09765 -1.5625,-0.09765 h -1.1914 v 11.42582 c 0,0.4036 0.026,0.7291 0.0781,0.9765 0.0521,0.2474 0.1498,0.4427 0.293,0.586 0.1562,0.1432 0.3711,0.2474 0.6445,0.3125 0.2865,0.052 0.6576,0.0911 1.1133,0.1171 v 0.4102 h -6.4844 v -0.4102 c 0.4558,-0.026 0.8204,-0.0651 1.0938,-0.1171 0.2734,-0.0651 0.4818,-0.1758 0.625,-0.3321 0.1562,-0.1692 0.2539,-0.3971 0.293,-0.6836 0.052,-0.2864 0.0781,-0.664 0.0781,-1.1328 v -11.15232 z"
     fill="white"
     id="path1"
     style="fill:#ffffff" /><g
     id="layer1"
     transform="matrix(0.18506223,0,0,0.18506223,-7.4208008,-10.831552)"
     style="fill:#ffffff"><path
       id="path2"
       style="fill:#ffffff;fill-opacity:1;stroke-width:0.264583"
       d="m 91.915844,85.49864 c -30.024947,1.442536 -53.19557,26.95197 -51.753033,56.97692 1.442538,30.02495 26.951974,53.19557 56.976921,51.75303 11.856828,-0.61934 23.185918,-5.09876 32.260248,-12.75543 -7.28324,4.71207 -15.67477,7.43194 -24.33739,7.88823 -27.365791,1.31478 -50.615987,-19.80374 -51.930768,-47.16953 -1.314781,-27.3658 19.803742,-50.615996 47.169538,-51.930773 10.17401,-0.483676 20.25031,2.176119 28.86015,7.618082 C 118.71816,89.263664 105.43876,84.849564 91.915844,85.49864 Z" /><path
       id="path7"
       style="fill:#ffffff;stroke-width:0.264583"
       d="m 91.050137,58.52924 c 0,0 0.81776,69.39178 7.1747,75.74872 6.356943,6.35694 25.998373,7.1747 25.998373,7.1747 0,0 -19.64144,0.81776 -25.998383,7.1747 -6.35694,6.35694 -7.1747,77.58696 -7.1747,77.58696 0,0 -0.81776,-71.23002 -7.1747,-77.58696 -6.35694,-6.35694 -25.998367,-7.1747 -25.998367,-7.1747 0,0 19.641427,-0.81776 25.998367,-7.1747 6.35694,-6.35694 7.17471,-75.74872 7.17471,-75.74872 z" /></g></svg>
